<svg height="480pt" viewBox="0 -2 480 480" width="480pt" xmlns="http://www.w3.org/2000/svg"><path d="m256 238.136719c0 8.835937-7.164062 16-16 16s-16-7.164063-16-16c0-8.835938 7.164062-16 16-16s16 7.164062 16 16zm0 0" fill="#9bc9ff"/><path d="m8 342.136719v-112c0-101.621094 82.378906-184 184-184h104v-32l80 48-80 48v-32h-92.800781c-86.46875.011719-157.285157 68.722656-159.902344 155.152343l-3.296875 108.847657zm0 0" fill="#9bc9ff"/><path d="m472 134.136719v112c0 101.621093-82.378906 184-184 184h-104v32l-80-48 80-48v32h92.800781c86.46875-.011719 157.285157-68.722657 159.902344-155.152344l3.296875-108.847656zm0 0" fill="#9bc9ff"/><g fill="#1e81ce"><path d="m48 350.136719h-16v-112c.105469-92.742188 75.261719-167.894531 168-168h104v25.863281l56.457031-33.863281-56.457031-33.863281v25.863281h-104c-101.574219.109375-183.890625 82.425781-184 184v112h-16v-112c.125-110.40625 89.59375-199.878907 200-200h88v-38.136719l103.542969 62.136719-103.542969 62.136719v-38.136719h-88c-83.910156.09375-151.90625 68.089843-152 152zm0 0"/><path d="m192 476.273438-103.542969-62.136719 103.542969-62.136719v38.136719h88c83.910156-.09375 151.90625-68.09375 152-152v-112h16v112c-.105469 92.738281-75.261719 167.894531-168 168h-104v-25.863281l-56.457031 33.863281 56.457031 33.863281v-25.863281h104c101.574219-.109375 183.890625-82.425781 184-184v-112h16v112c-.125 110.40625-89.59375 199.875-200 200h-88zm0 0"/><path d="m448 94.136719h16v16h-16zm0 0"/><path d="m448 62.136719h16v16h-16zm0 0"/><path d="m448 30.136719h16v16h-16zm0 0"/><path d="m16 430.136719h16v16h-16zm0 0"/><path d="m16 398.136719h16v16h-16zm0 0"/><path d="m16 366.136719h16v16h-16zm0 0"/><path d="m240 326.136719c-48.601562 0-88-39.398438-88-88 0-48.601563 39.398438-88 88-88s88 39.398437 88 88c-.058594 48.578125-39.421875 87.941406-88 88zm0-160c-39.765625 0-72 32.234375-72 72s32.234375 72 72 72 72-32.234375 72-72c-.042969-39.746094-32.253906-71.957031-72-72zm0 0"/><path d="m192 246.136719c-4.417969 0-8-3.582031-8-8 .039062-30.914063 25.089844-55.960938 56-56 4.417969 0 8 3.582031 8 8s-3.582031 8-8 8c-22.082031.027343-39.972656 17.917969-40 40 0 4.417969-3.582031 8-8 8zm0 0"/><path d="m240 294.136719c-4.417969 0-8-3.582031-8-8s3.582031-8 8-8c22.082031-.027344 39.972656-17.921875 40-40 0-4.417969 3.582031-8 8-8s8 3.582031 8 8c-.039062 30.910156-25.089844 55.960937-56 56zm0 0"/><path d="m240 262.136719c-13.253906 0-24-10.746094-24-24 0-13.253907 10.746094-24 24-24s24 10.746093 24 24c0 13.253906-10.746094 24-24 24zm0-32c-4.417969 0-8 3.582031-8 8s3.582031 8 8 8 8-3.582031 8-8-3.582031-8-8-8zm0 0"/></g></svg>